<svg xmlns="http://www.w3.org/2000/svg" xmlns:xlink="http://www.w3.org/1999/xlink" width="599.936" height="599.65" viewBox="0 0 599.936 599.65">
  <defs>
    <clipPath id="clip-path">
      <rect id="Rectangle_813" data-name="Rectangle 813" width="599.936" height="599.65" fill="none"/>
    </clipPath>
    <clipPath id="clip-path-4">
      <rect id="Rectangle_812" data-name="Rectangle 812" width="599.936" height="599.65" fill="#2fb266"/>
    </clipPath>
  </defs>
  <g id="Group_1804" data-name="Group 1804" transform="translate(-188.033 -1462.227)">
    <g id="Group_1458" data-name="Group 1458" transform="translate(188.033 1462.227)">
      <g id="Group_1457" data-name="Group 1457" clip-path="url(#clip-path)">
        <g id="Group_1454" data-name="Group 1454">
          <g id="Group_1453" data-name="Group 1453" clip-path="url(#clip-path)">
            <g id="Group_1452" data-name="Group 1452" opacity="0.44">
              <g id="Group_1451" data-name="Group 1451">
                <g id="Group_1450" data-name="Group 1450" clip-path="url(#clip-path)">
                  <path id="Path_3648" data-name="Path 3648" d="M589.724,378.347,599.936,311.8,545.7,283.682,537.574,235.4,579.7,191.268,549.751,133.7l-60.342,9.1-34.75-34.435,8.379-60.512L404.884,18.519l-43.53,42.763-48.385-7.431L284.274,0,220.04,10.525,209.871,70.762,166.389,93.181,111.561,66.392l-45.9,45.994,26.952,54.737L70.383,210.746,10.212,221.3,0,287.852l54.236,28.116,2.01,11.94h4.032l-2.45-14.556L4.362,285.635l9.347-60.908,59.316-10.41,24.033-47.164L70.483,113.182l41.885-41.97,54.069,26.417,47.024-24.245,10.027-59.4,58.618-9.6L310.4,57.48l52.323,8.034,42.917-42.161,53.072,26.77-8.262,59.666,37.58,37.24,59.507-8.972,27.324,52.523L533.323,234.1l8.786,52.2,53.465,27.717-9.346,60.908-59.316,10.41-24.089,47.272.587.95c.077.125,7.747,12.589,14.429,26.123,2.9,5.776,9.756,22.112,11.681,26.724l-41.951,42.036L433.5,502.021l-47.024,24.245-10.027,59.4-58.617,9.6-28.292-53.1-11.9-1.828v4.023l9.331,1.433,28.695,53.852L379.9,589.126l10.169-60.238,43.483-22.42,54.829,26.791,45.834-45.927-.51-1.227c-.36-.869-8.87-21.362-12.3-28.2-5.689-11.522-12.087-22.281-14.021-25.48l22.177-43.52Z" transform="translate(0 0)" fill="#2c5871"/>
                </g>
              </g>
            </g>
          </g>
        </g>
        <path id="Path_3649" data-name="Path 3649" d="M108.553,361.713l6.594-4.993.194-1.934,1.731-1.659,2.8,1.513.995,4.983-6.5,6.806-.952.474-.113.2-2.118-.128-3.307-3.691.6-.941Z" transform="translate(-36.396 -119.138)" fill="#d1d3d4"/>
        <g id="Group_1456" data-name="Group 1456">
          <g id="Group_1455" data-name="Group 1455" clip-path="url(#clip-path-4)">
            <path id="Path_3650" data-name="Path 3650" d="M127.234,373.876s.7-.252,1.2-.427a23.344,23.344,0,0,0,.794,2.279,1.909,1.909,0,0,0,1.739,1.338,4.514,4.514,0,0,1,1.525.231,1,1,0,0,1,.48.542h0a1.174,1.174,0,0,1-.235.917,26.283,26.283,0,0,0-1.7,3.825c-.113.332-.3.861,1.189,4.638.831,2.114,1.131,2.815,1.131,2.815a56.712,56.712,0,0,1,3.13,7.008,42.155,42.155,0,0,1,1.115,8.426c.116,3.647.483,10.027.4,12.008.087,4.155.173,8.211.26,12.365a3.489,3.489,0,1,1-6.944.685,49.744,49.744,0,0,1-.637-6.979c-.216-8.949.144-10.478-.775-17.768a58.113,58.113,0,0,0-2.641-11.527c-.111-.29-.582-1.506-1.191-3.013a30.234,30.234,0,0,0-1.914-4.567c-.759-1.255-.94-.86-1.132-1.81-.393-1.934-.36-2.827-1.2-6.009-.76-2.871-.593-2.8-.406-2.886,1.526-.538.235-.083.235-.083Z" transform="translate(-40.914 -125.993)" fill="#2fb266"/>
            <path id="Path_3651" data-name="Path 3651" d="M106.032,375.767l.236.084c.186.09.353.017-.415,2.886-.851,3.18-.821,4.073-1.219,6.005-.2.949-.375.553-1.138,1.806a30.177,30.177,0,0,0-1.927,4.561c-.613,1.5-1.089,2.72-1.2,3.009a58.107,58.107,0,0,0-2.674,11.52c-.94,7.287-.585,8.817-.827,17.765a49.8,49.8,0,0,1-.657,6.977,3.489,3.489,0,0,1-2.118,2.865c-.062.026-.125.05-.189.073l-.037.012c-.05.017-.1.033-.15.048l-.054.015c-.048.013-.1.025-.145.036l-.051.012c-.064.014-.129.026-.193.036h0c-.066.01-.133.018-.2.025l-.056,0c-.048,0-.1.007-.146.009H92.8c-.048,0-.1,0-.144,0h-.063c-.068,0-.137-.007-.205-.015a3.475,3.475,0,0,1-2.007-.9,3.511,3.511,0,0,1-.716-.922q-.08-.148-.145-.3a3.309,3.309,0,0,1-.115-.318,3.478,3.478,0,0,1-.136-1.379c.1-4.154.2-8.211.3-12.365-.074-1.981.372-8.348.5-11.994a43.989,43.989,0,0,1,.738-6.471c.147-.789.215-1.474.342-1.964a21.484,21.484,0,0,1,.99-2.369c.829-1.875,1.866-4.1,2.159-4.63,0,0,.3-.7,1.139-2.812.068-.171.131-.333.192-.491q.065-.167.125-.326c.06-.156.117-.308.169-.452.965-2.633.814-3.075.717-3.366a26.32,26.32,0,0,0-1.685-3.831,1.174,1.174,0,0,1-.232-.918,1,1,0,0,1,.482-.541,4.485,4.485,0,0,1,1.527-.226,1.91,1.91,0,0,0,1.742-1.333,23.377,23.377,0,0,0,.8-2.277c.453.162,1.2.431,1.2.431Z" transform="translate(-30.111 -125.947)" fill="#2fb266"/>
            <path id="Path_3652" data-name="Path 3652" d="M124.483,337.585l-1.883-8.076h0l-1.69-.172-.531,5.232.048-.029.518-.3-.156.664.569-.135-.264.564.7.084-.507.423.667.231-.533.413.583.323-.433.3.481.392-.6.426.52.4-.621.261.428.471-.585.077.427.476-.664.093.352.527-.1,0h0l-.537-.017.1.191-.421.167-.123-.05-.049.118h0l-.427.168-.6,5.954.276.037a6.265,6.265,0,0,1,5.253,4.8l.007-.085.483.049.355-3.155.486-4.322Z" transform="translate(-40.195 -111.111)" fill="#34495e"/>
            <path id="Path_3653" data-name="Path 3653" d="M92.929,407.668c.849-3.476,3.631-7.647,3.785-9.347a11.2,11.2,0,0,0-1.394-3.756c-.741,1.866-1.014,2.5-1.014,2.5-.294.53-1.331,2.755-2.16,4.63a21.478,21.478,0,0,0-.99,2.369c-.127.49-.194,1.175-.342,1.965a43.991,43.991,0,0,0-.738,6.471c-.126,3.647-.573,10.014-.5,11.995-.1,4.154-.2,8.211-.3,12.365a3.473,3.473,0,0,0,.135,1.378q.051.163.115.319t.145.3a3.513,3.513,0,0,0,.716.922,3.47,3.47,0,0,0,1.2.708c.155-7.968.643-29.979,1.337-32.818" transform="translate(-30.115 -133.117)" fill="#f39c11"/>
            <path id="Path_3654" data-name="Path 3654" d="M139.623,407.819c-.841-3.478-3.611-7.657-3.761-9.356a11.193,11.193,0,0,1,1.4-3.753c.737,1.868,1.008,2.5,1.008,2.5.292.531,1.323,2.759,2.148,4.636a21.516,21.516,0,0,1,.984,2.372c.126.49.191,1.175.337,1.965a43.985,43.985,0,0,1,.721,6.472c.117,3.647.547,10.015.468,12,.089,4.155.176,8.211.265,12.365a3.477,3.477,0,0,1-.139,1.379q-.051.162-.116.317c-.044.1-.093.205-.146.3a3.415,3.415,0,0,1-1.918,1.625c-.135-7.967-.567-29.98-1.254-32.821" transform="translate(-45.836 -133.166)" fill="#f39c11"/>
            <path id="Path_3655" data-name="Path 3655" d="M107.979,366.085l-.077.633-.564-.057c-.33,1.376-.83,3.268-1.159,4.644l5.564,2.025.82-1.821.169-.03a6.267,6.267,0,0,1-4.753-5.393" transform="translate(-35.822 -123.509)" fill="#34495e"/>
            <path id="Path_3656" data-name="Path 3656" d="M115.126,362a2.6,2.6,0,1,0,3.683,0,2.6,2.6,0,0,0-3.683,0" transform="translate(-38.583 -121.874)" fill="#34495e"/>
            <path id="Path_3657" data-name="Path 3657" d="M121.281,354.377l-.563.056-.237-1.991c0-.015,0-.029-.005-.044l-.018-.153a6.028,6.028,0,0,0-5.162-5.186l-.266-.044-1.112.284-.631-6.4-.485-.193-.134-.053-.618.266.219-.425.1-.192-.538.016h0l-.1,0,.354-.525-.665-.095.429-.475-.586-.078.429-.47-.62-.263.521-.4-.6-.427.482-.392-.433-.3.584-.322-.531-.415.667-.229-.506-.424.7-.082-.263-.564.569.137-.153-.665.517.3-.513-5.2-1.647.162-1.3,5.512-2.14,9.053.819,7.48.484-.048.14,1.8.02.257a6.028,6.028,0,0,0,6.588,5.39l.013.128a8.032,8.032,0,0,0,.889-.1l.881,1.973,5.569-2.008c-.325-1.377-.82-3.27-1.145-4.648m-4.678.849a2.988,2.988,0,1,1,0-4.226,2.988,2.988,0,0,1,0,4.226" transform="translate(-36.107 -111.142)" fill="#34495e"/>
            <path id="Path_3658" data-name="Path 3658" d="M231.69,211.817l3.364,1.6h19.829l3.363-1.6v-3.833H231.69Z" transform="translate(-78.167 -70.169)" fill="#2d3e50"/>
            <path id="Path_3659" data-name="Path 3659" d="M236.766,224.026l4.367,9.56h11.094l4.367-9.56v-7.849H236.766Z" transform="translate(-79.879 -72.933)" fill="#2d3e50"/>
            <path id="Path_3660" data-name="Path 3660" d="M243.422,243.543h4.029a.738.738,0,1,1,0,1.476H243.51l.179,3.01h3.762a.738.738,0,1,1,0,1.475h-3.674l.179,3.01h3.5a.738.738,0,1,1,0,1.475h-3.408l.2,3.334h9.324l.065-1.091h-3.275a.738.738,0,0,1,0-1.476h3.363l.179-3.01h-3.542a.738.738,0,0,1,0-1.476h3.629l.18-3.01h-3.809a.738.738,0,0,1,0-1.476h3.9l.2-3.334H243.357Z" transform="translate(-82.103 -81.797)" fill="#2d3e50"/>
            <rect id="Rectangle_796" data-name="Rectangle 796" width="5.194" height="2.183" transform="translate(164.204 175.525)" fill="#2d3e50"/>
            <path id="Path_3661" data-name="Path 3661" d="M241.843,190.876v11.341a.147.147,0,0,1-.147.146h-2.067a.147.147,0,0,1-.147-.146V190.876a1.18,1.18,0,0,1,2.361,0" transform="translate(-80.796 -63.999)" fill="#2d3e50"/>
            <path id="Path_3662" data-name="Path 3662" d="M262.773,190.876v11.341a.147.147,0,0,1-.147.146h-2.067a.147.147,0,0,1-.147-.146V190.876a1.18,1.18,0,0,1,2.361,0" transform="translate(-87.857 -63.999)" fill="#2d3e50"/>
            <path id="Path_3663" data-name="Path 3663" d="M214.851,275.368a19.53,19.53,0,0,1-19.508-19.508V245.123h3.3v10.738a16.2,16.2,0,0,0,32.406,0v-32.3h3.3v32.3a19.529,19.529,0,0,1-19.507,19.508" transform="translate(-65.904 -75.424)" fill="#2d3e50"/>
            <path id="Path_3664" data-name="Path 3664" d="M207.9,175.459c-.726,6.612-4.9,9.613-8.83,19.714,0,0-.787,1.27-.968,6.29-.1,2.819-1.348,3.864-2.421,4.238H178.752c-1.073-.374-2.319-1.419-2.421-4.238-.182-5.02-.967-6.29-.967-6.29-3.931-10.1-8.1-13.1-8.83-19.714-1.608-14.648,8.523-20.533,15.18-22.8a17.059,17.059,0,0,1,11.009,0c6.657,2.268,16.788,8.153,15.18,22.8" transform="translate(-56.127 -51.196)" fill="#fece30"/>
            <path id="Path_3665" data-name="Path 3665" d="M202.131,233.173v12.076a1.4,1.4,0,0,1-1.4,1.4H186.028a1.4,1.4,0,0,1-1.4-1.4V233.173Z" transform="translate(-62.29 -78.667)" fill="#2d3e50"/>
            <path id="Path_3666" data-name="Path 3666" d="M199.736,253.505v1.124a1.366,1.366,0,0,1-1.366,1.366h-5.01a1.366,1.366,0,0,1-1.366-1.366v-1.124Z" transform="translate(-64.775 -85.527)" fill="#818b96"/>
            <path id="Path_3667" data-name="Path 3667" d="M202.131,236.1v2.713l-17.5,1.7v-2.714Z" transform="translate(-62.29 -79.653)" fill="#818b96"/>
            <path id="Path_3668" data-name="Path 3668" d="M202.131,244.063v2.713l-17.5,1.7v-2.714Z" transform="translate(-62.29 -82.341)" fill="#818b96"/>
            <path id="Path_3669" data-name="Path 3669" d="M203.384,176.63a4.82,4.82,0,0,0-4.067-1.381,3.655,3.655,0,0,0-2.6,1.239,2.222,2.222,0,0,0-.459,1.47l-.33,3.849c-2.473.019-7.453.019-9.933,0l-.307-3.845a2.221,2.221,0,0,0-.459-1.472,3.655,3.655,0,0,0-2.6-1.239,4.822,4.822,0,0,0-4.067,1.381,3.336,3.336,0,0,0-1.048,2.705,4,4,0,0,0,4.022,3.73c.76.062,1.923.1,3.177.117l2.432,30.459,1.386-.111L186.1,183.2c2.338.017,7.374.017,9.7,0l-2.6,30.328,1.386.119,2.615-30.463c1.266-.02,2.442-.056,3.208-.118a4,4,0,0,0,4.022-3.73,3.336,3.336,0,0,0-1.048-2.705m-21.742,5.049a2.631,2.631,0,0,1-2.758-2.542,2.021,2.021,0,0,1,.668-1.536,3.382,3.382,0,0,1,2.448-1,3.692,3.692,0,0,1,.458.028c1.83.217,1.85,1.082,1.84,1.227l-.012.055.309,3.877c-1.176-.019-2.253-.053-2.952-.111m21.413-2.542a2.631,2.631,0,0,1-2.759,2.542c-.7.058-1.79.092-2.975.111l.324-3.773.015-.066-.019-.093c-.01-.142.007-1.011,1.84-1.227a3.438,3.438,0,0,1,2.906.97,2.021,2.021,0,0,1,.668,1.536" transform="translate(-59.879 -59.112)" fill="#f7931e"/>
            <path id="Path_3670" data-name="Path 3670" d="M779.913,253.945a2.643,2.643,0,0,0-3.332-1.651c-1.652.452-23,6.581-24.116,5.854s1.013-2.171,6.371-4.333,18.726-6.762,19.977-8.438c1.468-1.969.708-4.51-1.229-5.011s-14.747,4.322-17.746,5.55-7.59,3.035-8.592,2.878-1.533-1.307-.049-2.456,17.369-12.019,18.484-13.018c1.425-1.277-.188-5.227-2.607-5.093-2.253.125-31.42,17.687-32.167,17.412s3.029-6.2,4.8-10.425,2.743-5.139,2.232-6.917-2.556-2.695-4.646-1.421-12.284,13.1-15.46,17.976a122.36,122.36,0,0,0-6.136,10.886l-1.423.656.028.06-.028-.06-20.026,4.8s.091.268.252.74l.007,0c.1.3.24.7.4,1.171H694.9q.183.527.4,1.162h.006c.12.342.248.706.383,1.088h-.006c.141.4.29.818.445,1.25h.006q.178.5.366,1.018l-.005,0q.235.648.482,1.323l.005,0q.175.477.355.962l0,0q.255.687.518,1.381l0,0q.174.46.351.918h0q.276.718.553,1.421h0q.177.448.353.886h0q.3.742.592,1.441h0q.186.443.368.864h0c.1.239.206.474.307.7l.084.184c2.624,5.785,8.859,14.821,8.859,14.821l15.765-12.693,1.395-.716a41.942,41.942,0,0,0,10.382-1.689c4.709-1.553,7.2-2.544,7.2-2.544s23.725-2.311,25.856-3.092c2.187-.8,3.205-1.788,1.485-3.164s-18.526-.675-18.705-1.763c-.078-.476.793-1.442,2.445-1.894s21.176-6.883,22.73-7.849c1.606-1,2.308-2.154,2.035-3.174" transform="translate(-234.223 -76.342)" fill="#6fca95"/>
            <path id="Path_3671" data-name="Path 3671" d="M777.523,260.387c-1.323.7-17.02,11.838-18.612,12.833s-2.488.1-2.289-.9,3.484-4.675,5.673-7.064,11.147-12.733,11.347-14.723-1.924-3.581-4.28-2.885c-2.006.593-10.948,11.54-14.83,15.817s-5.972,5.77-6.27,4.477,12.84-19.2,13.835-20.592a2.641,2.641,0,0,0-.4-3.7c-.863-.609-2.191-.35-3.683.811-1.445,1.123-14.232,17.21-15.228,18.6s-2.2,1.875-2.623,1.637c-.96-.543,5.509-16.062,4.813-18.151s-1.974-1.476-3.483.3c-1.47,1.728-11.844,23.179-11.844,23.179s-1.792,1.989-4.877,5.869a41.883,41.883,0,0,0-5.176,9.152l-1.154,1.061-17.368,10.4s6.327,8.972,10.85,13.433l.144.143c.176.173.361.351.549.53h0c.221.21.449.425.684.643v0q.554.515,1.147,1.054l0,0q.35.316.71.637l0,0q.563.5,1.142,1.01l0,0q.369.324.741.646l0,0c.372.323.746.645,1.117.963l0,0,.78.666,0,0q.547.465,1.075.91l0,0q.423.357.83.7l0,0q.53.443,1.02.85l0-.005.889.735,0,.005q.519.428.951.781l0-.005c.386.315.71.58.959.782l0,.006c.387.315.608.492.608.492L736.7,304.37l-.046-.046,1.154-1.061a122.41,122.41,0,0,0,12.342-1.989c5.673-1.293,20.3-6.765,22.222-8.283s1.765-3.754.272-4.848-2.688-.5-7.266-.3-11.446,1.691-11.446.9,26.573-22.076,27.469-24.146c.962-2.222-2.188-5.1-3.88-4.206" transform="translate(-236.526 -82.097)" fill="#2fb266"/>
            <path id="Path_3672" data-name="Path 3672" d="M616.722,154.5H592.516a7.9,7.9,0,0,1-7.9-7.9v-58.2a7.9,7.9,0,0,1,7.9-7.9h24.206a7.9,7.9,0,0,1,7.9,7.9v58.2a7.9,7.9,0,0,1-7.9,7.9" transform="translate(-197.237 -27.163)" fill="#2fb266"/>
            <rect id="Rectangle_797" data-name="Rectangle 797" width="35.88" height="69.871" rx="8.809" transform="translate(389.442 55.409)" fill="#1e3e57"/>
            <path id="Path_3673" data-name="Path 3673" d="M601.278,177.015a2.574,2.574,0,1,1-2.574-2.574,2.574,2.574,0,0,1,2.574,2.574" transform="translate(-201.121 -58.852)" fill="#1a1a1a"/>
            <path id="Path_3674" data-name="Path 3674" d="M599.1,175.6A1.806,1.806,0,1,0,600.9,177.4,1.806,1.806,0,0,0,599.1,175.6m0,3.206a1.4,1.4,0,1,1,1.4-1.4,1.4,1.4,0,0,1-1.4,1.4" transform="translate(-201.512 -59.243)" fill="#ad382d"/>
            <path id="Path_3675" data-name="Path 3675" d="M616.065,177.015a2.574,2.574,0,1,1-2.574-2.574,2.574,2.574,0,0,1,2.574,2.574" transform="translate(-206.11 -58.852)" fill="#9cc4e4"/>
            <path id="Path_3676" data-name="Path 3676" d="M630.852,177.015a2.574,2.574,0,1,1-2.574-2.574,2.574,2.574,0,0,1,2.574,2.574" transform="translate(-211.099 -58.852)" fill="#9cc4e4"/>
            <path id="Path_3677" data-name="Path 3677" d="M597.254,124.4H593.7a1.215,1.215,0,0,1-1.215-1.215v-1.215a1.215,1.215,0,0,1,1.215-1.215h3.555a1.215,1.215,0,0,1,1.215,1.215v1.215a1.215,1.215,0,0,1-1.215,1.215" transform="translate(-199.891 -40.74)" fill="#e77e23"/>
            <path id="Path_3678" data-name="Path 3678" d="M632.859,124.4H629.3a1.215,1.215,0,0,1-1.215-1.215v-1.215a1.215,1.215,0,0,1,1.215-1.215h3.555a1.215,1.215,0,0,1,1.215,1.215v1.215a1.215,1.215,0,0,1-1.215,1.215" transform="translate(-211.903 -40.74)" fill="#e77e23"/>
            <path id="Path_3679" data-name="Path 3679" d="M620.328,141.938a11.26,11.26,0,1,1-11.259-11.259,11.259,11.259,0,0,1,11.259,11.259" transform="translate(-201.687 -44.088)" fill="#ad5f1a"/>
            <path id="Path_3680" data-name="Path 3680" d="M614.209,166.48c-.374,0-.752-.017-1.123-.05l.057-.641a12.211,12.211,0,0,0,2.089,0l.039.319.023.321c-.364.031-.728.046-1.084.046" transform="translate(-206.841 -55.934)" fill="#e77e23"/>
            <path id="Path_3681" data-name="Path 3681" d="M618.99,165.707l-.142-.628a11.988,11.988,0,0,0,2-.641l.249.592a12.578,12.578,0,0,1-2.106.677" transform="translate(-208.785 -55.478)" fill="#fff"/>
            <path id="Path_3682" data-name="Path 3682" d="M609.377,165.682a12.607,12.607,0,0,1-2.1-.69l.253-.591a12,12,0,0,0,2,.654Z" transform="translate(-204.88 -55.465)" fill="#e77e23"/>
            <path id="Path_3683" data-name="Path 3683" d="M624.458,163.217l-.331-.552a12.119,12.119,0,0,0,1.7-1.231l.421.486a12.731,12.731,0,0,1-1.792,1.3" transform="translate(-210.566 -54.464)" fill="#fff"/>
            <path id="Path_3684" data-name="Path 3684" d="M603.986,163.162a12.777,12.777,0,0,1-1.786-1.3l.423-.485a12.046,12.046,0,0,0,1.7,1.239Z" transform="translate(-203.169 -54.443)" fill="#e77e23"/>
            <path id="Path_3685" data-name="Path 3685" d="M628.976,159.206l-.484-.423a12.108,12.108,0,0,0,1.24-1.695l.551.333a12.843,12.843,0,0,1-1.307,1.785" transform="translate(-212.039 -52.998)" fill="#fff"/>
            <path id="Path_3686" data-name="Path 3686" d="M599.654,159.132a12.735,12.735,0,0,1-1.3-1.791l.553-.331a12.027,12.027,0,0,0,1.232,1.7Z" transform="translate(-201.872 -52.972)" fill="#e77e23"/>
            <path id="Path_3687" data-name="Path 3687" d="M632.117,154.07l-.592-.254a12.033,12.033,0,0,0,.656-1.994l.627.146a12.693,12.693,0,0,1-.691,2.1" transform="translate(-213.062 -51.221)" fill="#fff"/>
            <path id="Path_3688" data-name="Path 3688" d="M596.8,153.982a12.62,12.62,0,0,1-.678-2.106l.627-.142a12.066,12.066,0,0,0,.643,2Z" transform="translate(-201.119 -51.192)" fill="#e77e23"/>
            <path id="Path_3689" data-name="Path 3689" d="M633.559,148.255l-.641-.058c.032-.356.048-.719.048-1.077,0-.338-.014-.682-.043-1.024l0-.043.641-.055,0,.044c.03.36.045.722.045,1.078,0,.377-.017.759-.05,1.134" transform="translate(-213.532 -49.257)" fill="#e77e23"/>
            <path id="Path_3690" data-name="Path 3690" d="M595.689,148.184l0-.023c-.03-.358-.045-.721-.045-1.077,0-.371.016-.745.048-1.112l.641.056c-.031.349-.046.7-.046,1.056s.014.682.043,1.024l0,.021Z" transform="translate(-200.956 -49.248)" fill="#fff"/>
            <path id="Path_3691" data-name="Path 3691" d="M632.2,142.432a12.013,12.013,0,0,0-.647-2l.592-.251a12.632,12.632,0,0,1,.682,2.1Z" transform="translate(-213.071 -47.295)" fill="#e77e23"/>
            <path id="Path_3692" data-name="Path 3692" d="M596.761,142.408l-.627-.145a12.6,12.6,0,0,1,.688-2.1l.592.253a12,12,0,0,0-.653,2" transform="translate(-201.122 -47.286)" fill="#fff"/>
            <path id="Path_3693" data-name="Path 3693" d="M629.768,137.224a12.043,12.043,0,0,0-1.235-1.7l.485-.423a12.687,12.687,0,0,1,1.3,1.789Z" transform="translate(-212.053 -45.581)" fill="#e77e23"/>
            <path id="Path_3694" data-name="Path 3694" d="M598.942,137.2l-.551-.333a12.755,12.755,0,0,1,1.3-1.787l.485.422a12.166,12.166,0,0,0-1.238,1.7" transform="translate(-201.883 -45.574)" fill="#fff"/>
            <path id="Path_3695" data-name="Path 3695" d="M625.874,133.038a12.164,12.164,0,0,0-1.7-1.236l.332-.551a12.82,12.82,0,0,1,1.788,1.3Z" transform="translate(-210.583 -44.281)" fill="#fff"/>
            <path id="Path_3696" data-name="Path 3696" d="M602.669,133.02l-.422-.486a12.675,12.675,0,0,1,1.79-1.3l.331.551a12.064,12.064,0,0,0-1.7,1.234" transform="translate(-203.184 -44.276)" fill="#e77e23"/>
            <path id="Path_3697" data-name="Path 3697" d="M620.9,130.278a12.032,12.032,0,0,0-2-.651l.145-.627a12.587,12.587,0,0,1,2.1.686Z" transform="translate(-208.804 -43.522)" fill="#fff"/>
            <path id="Path_3698" data-name="Path 3698" d="M607.581,130.269l-.251-.592a12.732,12.732,0,0,1,2.106-.681l.143.628a11.967,11.967,0,0,0-2,.645" transform="translate(-204.899 -43.52)" fill="#fff"/>
            <path id="Path_3699" data-name="Path 3699" d="M613.2,129.2l-.054-.641.035,0a12.9,12.9,0,0,1,2.176,0l-.056.641a12.176,12.176,0,0,0-2.068,0Z" transform="translate(-206.862 -43.357)" fill="#e74b3c"/>
            <path id="Path_3700" data-name="Path 3700" d="M609.071,130.678a11.259,11.259,0,1,0,11.259,11.259,11.257,11.257,0,0,0-11.259-11.259m-10.082,11.259A10.075,10.075,0,0,1,608.24,131.9l-.58,1.217a3.951,3.951,0,0,0-.391,1.713v11.368a3.374,3.374,0,0,1-5.907,2.242,10.038,10.038,0,0,1-2.374-6.5m17.9,6.369a3.382,3.382,0,0,1-6.015-2.118V134.826a4,4,0,0,0-.387-1.713L609.9,131.9a10.077,10.077,0,0,1,6.987,16.411" transform="translate(-201.688 -44.088)" fill="#fcb813"/>
            <rect id="Rectangle_798" data-name="Rectangle 798" width="29.454" height="15.727" rx="2.197" transform="translate(392.655 60.355)" fill="#2fb266"/>
            <path id="Path_3701" data-name="Path 3701" d="M620.574,91.086H594.032a1.455,1.455,0,0,0-1.454,1.454v12.816a1.456,1.456,0,0,0,1.454,1.456h26.542a1.456,1.456,0,0,0,1.456-1.456V92.54a1.455,1.455,0,0,0-1.456-1.454m.813,14.27a.814.814,0,0,1-.813.813h-26.54a.813.813,0,0,1-.813-.813V92.54a.811.811,0,0,1,.813-.811h26.54a.812.812,0,0,1,.813.811Z" transform="translate(-199.922 -30.73)" fill="#fff"/>
            <path id="Path_3702" data-name="Path 3702" d="M613.2,135.487l1.063-1.841,1.063,1.841Z" transform="translate(-206.879 -45.089)" fill="#e74b3c"/>
            <path id="Path_3703" data-name="Path 3703" d="M599.031,101.98h-2.453l-.645.645.645.645h2.453l.645-.645Z" transform="translate(-201.054 -34.406)" fill="#333"/>
            <path id="Path_3704" data-name="Path 3704" d="M626.029,100.373l.645-.645V97.275l-1.289-1.289v3.743Z" transform="translate(-210.99 -32.383)" fill="#333"/>
            <path id="Path_3705" data-name="Path 3705" d="M625.731,95.639l1.289,1.289h2.453l1.29-1.289Z" transform="translate(-211.107 -32.266)" fill="#333"/>
            <path id="Path_3706" data-name="Path 3706" d="M629.473,108.321H627.02l-1.289,1.289h5.032Z" transform="translate(-211.107 -36.545)" fill="#333"/>
            <path id="Path_3707" data-name="Path 3707" d="M626.674,103.944l-.645-.645-.645.645v3.743l1.289-1.289Z" transform="translate(-210.99 -34.851)" fill="#333"/>
            <path id="Path_3708" data-name="Path 3708" d="M631.725,99.728l.645.645.645-.645V95.985l-1.289,1.289Z" transform="translate(-213.13 -32.383)" fill="#333"/>
            <path id="Path_3709" data-name="Path 3709" d="M632.37,103.3l-.645.645V106.4l1.289,1.289v-3.743Z" transform="translate(-213.13 -34.851)" fill="#333"/>
            <path id="Path_3710" data-name="Path 3710" d="M615.65,100.373l.645-.645V97.275l-1.289-1.289v3.743Z" transform="translate(-207.489 -32.383)" fill="#333"/>
            <path id="Path_3711" data-name="Path 3711" d="M615.352,95.639l1.289,1.289h2.453l1.289-1.289Z" transform="translate(-207.606 -32.266)" fill="#333"/>
            <path id="Path_3712" data-name="Path 3712" d="M619.094,108.321h-2.453l-1.289,1.289h5.032Z" transform="translate(-207.606 -36.545)" fill="#333"/>
            <path id="Path_3713" data-name="Path 3713" d="M616.3,103.944l-.645-.645-.645.645v3.743L616.3,106.4Z" transform="translate(-207.489 -34.851)" fill="#333"/>
            <path id="Path_3714" data-name="Path 3714" d="M621.346,99.728l.645.645.645-.645V95.985l-1.289,1.289Z" transform="translate(-209.628 -32.383)" fill="#333"/>
            <path id="Path_3715" data-name="Path 3715" d="M621.991,103.3l-.645.645V106.4l1.289,1.289v-3.743Z" transform="translate(-209.628 -34.851)" fill="#333"/>
            <path id="Path_3716" data-name="Path 3716" d="M605.271,100.373l.645-.645V97.275l-1.289-1.289v3.743Z" transform="translate(-203.987 -32.383)" fill="#333"/>
            <path id="Path_3717" data-name="Path 3717" d="M604.973,95.639l1.289,1.289h2.453L610,95.639Z" transform="translate(-204.104 -32.266)" fill="#333"/>
            <path id="Path_3718" data-name="Path 3718" d="M608.715,108.321h-2.453l-1.289,1.289H610Z" transform="translate(-204.104 -36.545)" fill="#333"/>
            <path id="Path_3719" data-name="Path 3719" d="M605.916,103.944l-.645-.645-.645.645v3.743l1.289-1.289Z" transform="translate(-203.987 -34.851)" fill="#333"/>
            <path id="Path_3720" data-name="Path 3720" d="M610.968,99.728l.645.645.645-.645V95.985l-1.289,1.289Z" transform="translate(-206.127 -32.383)" fill="#333"/>
            <path id="Path_3721" data-name="Path 3721" d="M611.612,103.3l-.645.645V106.4l1.289,1.289v-3.743Z" transform="translate(-206.127 -34.851)" fill="#333"/>
            <path id="Path_3722" data-name="Path 3722" d="M642.924,203.9H621a7.751,7.751,0,0,1-7.743-7.743V183.191h2.052v12.962A5.7,5.7,0,0,0,621,201.843h21.927a5.7,5.7,0,0,0,5.691-5.691v-29.8h2.052v29.8a7.752,7.752,0,0,1-7.743,7.743" transform="translate(-206.898 -56.123)" fill="#1a1a1a"/>
            <path id="Path_3723" data-name="Path 3723" d="M638.694,185.031h-2.91a7.752,7.752,0,0,1-7.743-7.743v-3.566h2.052v3.566a5.7,5.7,0,0,0,5.691,5.691h2.91a5.7,5.7,0,0,0,5.691-5.691V138.282h2.052v39.006a7.752,7.752,0,0,1-7.743,7.743" transform="translate(-211.887 -46.653)" fill="#2fb266"/>
            <path id="Path_3724" data-name="Path 3724" d="M667.192,101.389v7.088h1.291v-7.088L667.837,97Z" transform="translate(-225.095 -32.725)" fill="#1e3e57"/>
            <path id="Path_3725" data-name="Path 3725" d="M669.393,120.951h-5l.519-6.262a1.334,1.334,0,0,1,1.152-1.361h1.657a1.333,1.333,0,0,1,1.152,1.361Z" transform="translate(-224.152 -38.234)" fill="#333"/>
            <path id="Path_3726" data-name="Path 3726" d="M669.414,126.238h-6.356a.613.613,0,0,1-.612-.612v-.182a.613.613,0,0,1,.612-.612h6.356a.613.613,0,0,1,.612.612v.182a.613.613,0,0,1-.612.612" transform="translate(-223.494 -42.115)" fill="#5c5c5c"/>
            <path id="Path_3727" data-name="Path 3727" d="M664.248,126.954l-.275,10.069q-.023.81-.009,1.621l1.011,15.508a1.147,1.147,0,0,0,1.145,1.073h1.252a1.147,1.147,0,0,0,1.145-1.073l1.011-15.508q.014-.81-.009-1.621l-.275-10.069Z" transform="translate(-224.005 -42.831)" fill="#333"/>
            <path id="Path_3728" data-name="Path 3728" d="M653.279,82.4V89.49h1.291V82.4l-.646-4.391Z" transform="translate(-220.402 -26.319)" fill="#1e3e57"/>
            <path id="Path_3729" data-name="Path 3729" d="M655.481,101.964h-5L651,95.7a1.333,1.333,0,0,1,1.152-1.361h1.657a1.334,1.334,0,0,1,1.152,1.361Z" transform="translate(-219.458 -31.829)" fill="#2fb266"/>
            <path id="Path_3730" data-name="Path 3730" d="M655.5,107.251h-6.356a.613.613,0,0,1-.612-.612v-.182a.613.613,0,0,1,.612-.612H655.5a.612.612,0,0,1,.612.612v.182a.612.612,0,0,1-.612.612" transform="translate(-218.801 -35.71)" fill="#6fca95"/>
            <path id="Path_3731" data-name="Path 3731" d="M650.336,107.967l-.275,10.07q-.022.809-.009,1.62l1.011,15.508a1.148,1.148,0,0,0,1.145,1.073h1.252a1.148,1.148,0,0,0,1.145-1.073l1.011-15.508q.014-.81-.009-1.621l-.275-10.069Z" transform="translate(-219.311 -36.426)" fill="#2fb266"/>
            <path id="Path_3732" data-name="Path 3732" d="M631.111,178.847h-6.2v-4.5a1.1,1.1,0,0,1,1.1-1.1h4a1.1,1.1,0,0,1,1.1,1.1Z" transform="translate(-210.83 -58.45)" fill="#2fb266"/>
            <rect id="Rectangle_799" data-name="Rectangle 799" width="6.201" height="1.024" transform="translate(414.08 120.398)" fill="#6fca95"/>
            <rect id="Rectangle_800" data-name="Rectangle 800" width="6.201" height="1.024" transform="translate(414.08 121.438)" fill="#2fb266"/>
            <rect id="Rectangle_801" data-name="Rectangle 801" width="6.201" height="1.024" transform="translate(414.08 123.485)" fill="#2fb266"/>
            <path id="Path_3733" data-name="Path 3733" d="M630.524,190.472H625.5a.586.586,0,0,1-.586-.586v-.437h6.2v.437a.586.586,0,0,1-.586.586" transform="translate(-210.83 -63.915)" fill="#6fca95"/>
            <rect id="Rectangle_802" data-name="Rectangle 802" width="6.201" height="1.024" transform="translate(414.08 122.461)" fill="#6fca95"/>
            <rect id="Rectangle_803" data-name="Rectangle 803" width="6.201" height="1.024" transform="translate(414.08 124.509)" fill="#6fca95"/>
            <rect id="Rectangle_804" data-name="Rectangle 804" width="1.686" height="1.327" transform="translate(416.337 122.31)" fill="#2fb266"/>
            <path id="Path_3734" data-name="Path 3734" d="M630,192.9h-2.09a.206.206,0,0,1-.205-.205v-1.7h2.5v1.7a.206.206,0,0,1-.205.205" transform="translate(-211.772 -64.437)" fill="#6fca95"/>
            <path id="Path_3735" data-name="Path 3735" d="M616.323,178.847h-6.2v-4.5a1.1,1.1,0,0,1,1.1-1.1h4a1.1,1.1,0,0,1,1.1,1.1Z" transform="translate(-205.841 -58.45)" fill="#333"/>
            <rect id="Rectangle_805" data-name="Rectangle 805" width="6.201" height="1.024" transform="translate(404.281 120.398)" fill="#1a1a1a"/>
            <rect id="Rectangle_806" data-name="Rectangle 806" width="6.201" height="1.024" transform="translate(404.281 121.438)" fill="#333"/>
            <rect id="Rectangle_807" data-name="Rectangle 807" width="6.201" height="1.024" transform="translate(404.281 123.485)" fill="#333"/>
            <path id="Path_3736" data-name="Path 3736" d="M615.737,190.472h-5.028a.586.586,0,0,1-.586-.586v-.437h6.2v.437a.586.586,0,0,1-.586.586" transform="translate(-205.842 -63.915)" fill="#333"/>
            <rect id="Rectangle_808" data-name="Rectangle 808" width="6.201" height="1.024" transform="translate(404.281 122.461)" fill="#1a1a1a"/>
            <rect id="Rectangle_809" data-name="Rectangle 809" width="6.201" height="1.024" transform="translate(404.281 124.509)" fill="#1a1a1a"/>
            <rect id="Rectangle_810" data-name="Rectangle 810" width="1.686" height="1.327" transform="translate(406.539 122.31)" fill="#333"/>
            <path id="Path_3737" data-name="Path 3737" d="M615.226,192.9h-2.12a.19.19,0,0,1-.19-.19v-1.716h2.5v1.716a.19.19,0,0,1-.19.19" transform="translate(-206.784 -64.437)" fill="#333"/>
            <path id="Path_3738" data-name="Path 3738" d="M518.08,813.2l1.269,1.27s-8.67,6.767-13.156,13.534l-1.27-1.27c4.486-6.767,13.157-13.533,13.157-13.533" transform="translate(-170.349 -274.356)" fill="#34495e"/>
            <path id="Path_3739" data-name="Path 3739" d="M492.867,825.647c1.508-15.57,4.41-20.206,6.3-24.278s.189-6.635-.792-9.085.49-.641.905-8.406a22.231,22.231,0,0,0-.032-2.755c.044.295.085.578.123.846a16.643,16.643,0,0,0,.4,2.239,15.23,15.23,0,0,1,.148,3.214,39.992,39.992,0,0,0,.133,4.408c.181,1.628.569,2.6,1.186,2.959,1.823,1.073,7.918,6.843,8.354,7.256a43.654,43.654,0,0,0-3,3.51c-.49.792-3.68,4.065-5.828,14.584s-5.429,23.978-10.293,22.169.891-1.089,2.4-16.659" transform="translate(-164.826 -263.533)" fill="#6fca95"/>
            <path id="Path_3740" data-name="Path 3740" d="M535.5,749.359l-11.237,3.149a4.19,4.19,0,0,1-.677-1.728c-.048-.418.453-.863.937-1.295.51-.453,1.037-.923,1.1-1.482.019-.17.077-.687-1.48-4.2-.709-1.6-1.508-3.253-1.62-3.485l.162-.345s15.586-2.939,16.828,5.558c.008.057,1.248,3.923,1.248,3.923l-4.467,1Z" transform="translate(-176.288 -249.484)" fill="#34495e"/>
            <path id="Path_3741" data-name="Path 3741" d="M535.144,768.164a5.564,5.564,0,0,0-3.255,4.587l.5.729-3.123,2.778c-.976-2.036-.767-2.762-.283-3.845a10.509,10.509,0,0,0,.472-1.2,2.278,2.278,0,0,0-.211-2.126,3.847,3.847,0,0,0-1.319-1.022l-.178-.1c-.608-.348-.547-.631-.346-1.57.042-.2.09-.419.136-.67.27-1.464-.71-4.389-.751-4.509l-.038.013-.265-1.349,13.044-1.835-.252-1.357,3.167-.578.151.453s.754-.15.854,3.418-5.1,6.6-8.306,8.181" transform="translate(-177.624 -255.095)" fill="#34495e"/>
            <path id="Path_3742" data-name="Path 3742" d="M498.615,746.178c-2.264,2.692-.6,5.994-.375,7.05a80.988,80.988,0,0,1,3.106,9.012,28.184,28.184,0,0,1,1.391,6.182,17.427,17.427,0,0,0,.388,2.177,14.409,14.409,0,0,1,.166,3.324c-.013,2.683-.039,6.356,1.134,7.041,1.884,1.108,7.965,6.875,8.424,7.315l0,0q.818.765,1.54,1.549c.423.441.816.885,1.187,1.335,4.367,5.239,5.954,10.6,7.04,13.4,1.3,3.333,2.661,19.561,5.658,23.012s5.88,1.186,5.88,1.186-1.077-7.464-1.13-8.99-.454-7.18-.51-7.857-.846-3.847-.907-4.353-.681-5.828-.79-6.5-1.134-3.393-1.413-4.353-.681-4.58-1.243-6.5-1.924-4.523-2.094-5.714-1.418-6.1-1.418-6.1a1.288,1.288,0,0,0-.829-.131c-.58.048-.654.1-.706-.428s3.193-3.289,3.092-4.524-1.71-1.029-1.71-1.029l-.423-.982s-2.918,1.156-3.7,1.056a1.76,1.76,0,0,1-1.156-.8l0,0-.026-.052a.208.208,0,0,1-.018-.035,6.205,6.205,0,0,1-.767-2.565,3.869,3.869,0,0,1,.436-1.693,9.883,9.883,0,0,0,.458-1.156c.515-1.658-.48-2.216-1.356-2.709l-.179-.1c-.851-.484-.733-1.012-.528-1.976.044-.192.087-.41.135-.659.249-1.366-.728-4.289-.741-4.319l.091-.031-1.3-3.084a4.509,4.509,0,0,1-.676-1.793c-.07-.611.506-1.125,1.06-1.618.458-.406.933-.829.977-1.239.079-.7-1.775-4.829-3.023-7.4-1.6.218-12.393,1.784-15.15,5.064m26.3,42.921a1.527,1.527,0,0,1-3.053,0,1.527,1.527,0,0,1,3.053,0m-8.825-13a4.491,4.491,0,1,1-4.489-4.489,4.487,4.487,0,0,1,4.489,4.489m-8.576-15.888a1.527,1.527,0,1,1-1.527-1.527,1.535,1.535,0,0,1,1.527,1.527M501.7,749.826a1.527,1.527,0,1,1-1.527-1.527,1.523,1.523,0,0,1,1.527,1.527m11.233-2.692a1.527,1.527,0,1,1,1.527-1.527,1.534,1.534,0,0,1-1.527,1.527" transform="translate(-167.825 -250.035)" fill="#2fb266"/>
            <path id="Path_3743" data-name="Path 3743" d="M537.35,812.754a1.527,1.527,0,0,1-3.053,0,1.527,1.527,0,0,1,3.053,0" transform="translate(-180.26 -273.69)" fill="#34495e"/>
            <path id="Path_3744" data-name="Path 3744" d="M516.525,787.132a4.491,4.491,0,1,0,4.489,4.489,4.486,4.486,0,0,0-4.489-4.489m2.979,4.489a2.979,2.979,0,1,1-2.98-2.98,2.986,2.986,0,0,1,2.98,2.98" transform="translate(-172.748 -265.56)" fill="#34495e"/>
            <path id="Path_3745" data-name="Path 3745" d="M511.089,769.152a1.527,1.527,0,1,1-1.527-1.527,1.534,1.534,0,0,1,1.527,1.527" transform="translate(-171.4 -258.979)" fill="#34495e"/>
            <path id="Path_3746" data-name="Path 3746" d="M521.563,747.117a1.527,1.527,0,1,1-1.527-1.527,1.522,1.522,0,0,1,1.527,1.527" transform="translate(-174.933 -251.545)" fill="#34495e"/>
            <path id="Path_3747" data-name="Path 3747" d="M502.307,753.484a1.527,1.527,0,1,1-1.527-1.527,1.522,1.522,0,0,1,1.527,1.527" transform="translate(-168.437 -253.693)" fill="#34495e"/>
            <path id="Path_3748" data-name="Path 3748" d="M520.275,792.389a2.979,2.979,0,1,1-2.98-2.98,2.986,2.986,0,0,1,2.98,2.98" transform="translate(-173.518 -266.329)" fill="#0e2a5c"/>
            <path id="Path_3749" data-name="Path 3749" d="M694.247,657.69Z" transform="translate(-234.223 -221.889)" fill="#34495e"/>
            <path id="Path_3750" data-name="Path 3750" d="M703.759,643.146l-.248,1.067a8.3,8.3,0,0,1-4.432-3.045l.31-1.56a7.209,7.209,0,0,0,4.369,3.538" transform="translate(-235.854 -215.789)" fill="#d1d3d4"/>
            <path id="Path_3751" data-name="Path 3751" d="M716.487,625.012l-.228,1.785a7.2,7.2,0,0,0-4.4-3.329l.26-1.067a7.78,7.78,0,0,1,4.369,2.611" transform="translate(-240.165 -209.984)" fill="#d1d3d4"/>
            <path id="Path_3752" data-name="Path 3752" d="M712.43,632.556c-.2-.783-.423-1.912-.657-3.09-.1-.518-.2-1.049-.307-1.56-.215-1.123-.43-2.178-.614-2.918.081-1.166.225-2.553.485-4.1a7.21,7.21,0,0,0-8.008-3.332l-.258-1.068-2.807-11.6s-4.524,3.789-2.447,11.025c.338,1.2.614,2.35.829,3.442.111.524.2,1.03.282,1.523.251,1.549.4,2.936.477,4.1-.192.74-.4,1.794-.626,2.917a7.211,7.211,0,0,0,4.369,3.538.46.46,0,0,1,.013-.062l1.961.033,1.955-.029s.006.019.018.062c.031.142.123.537.246,1.067.356,1.567.977,4.318,1.148,5.349a19.993,19.993,0,0,0,.537,2.037l4.875-2.61c-.572-1.586-1.172-3.549-1.472-4.721m-7.3-3.88a4.16,4.16,0,1,1,4.167-4.159,4.161,4.161,0,0,1-4.167,4.159" transform="translate(-235.244 -204.073)" fill="#34495e"/>
            <path id="Path_3753" data-name="Path 3753" d="M707.015,628.234a4.16,4.16,0,1,0,4.159,4.161,4.161,4.161,0,0,0-4.159-4.161m-.007,7.451a3.29,3.29,0,1,1,3.291-3.29,3.287,3.287,0,0,1-3.291,3.29" transform="translate(-237.125 -211.952)" fill="#d1d3d4"/>
            <path id="Path_3754" data-name="Path 3754" d="M714.579,655.82l5.544-2.941a.992.992,0,0,1,1.346.423l.9,1.749a40,40,0,0,1,3.982-2.151c.659-.164,2.678.127,1.523,1.69s-4.039,2.056-2.725,6.178,12.43,16.255,8.854,45.411c-.6,4.915-5.294,6.3-5.851.571-.9-9.241-2.285-22.167-4.915-29.379-3.346-9.176-8.657-21.55-8.657-21.55" transform="translate(-241.083 -220.228)" fill="#6fca95"/>
            <path id="Path_3755" data-name="Path 3755" d="M711,632.574a3.8,3.8,0,1,1-3.8-3.807,3.808,3.808,0,0,1,3.8,3.807" transform="translate(-237.308 -212.132)" fill="#34495e"/>
            <path id="Path_3756" data-name="Path 3756" d="M717.44,615.927c-.347,1.2-.762,2.87-.985,3.961a8.311,8.311,0,0,0-4.42-2.872l2.973-12.119s4.517,3.8,2.431,11.03" transform="translate(-240.225 -204.078)" fill="#34495e"/>
            <path id="Path_3757" data-name="Path 3757" d="M702.586,644.2c-.366,1.566-1.158,4.807-1.332,5.836a20.313,20.313,0,0,1-.533,2.036l-4.876-2.62c.581-1.584,1.177-3.546,1.48-4.718.2-.783.558-2.539.787-3.716a8.645,8.645,0,0,0,4.474,3.181" transform="translate(-234.762 -216.265)" fill="#34495e"/>
            <path id="Path_3758" data-name="Path 3758" d="M693.591,655.8l-5.538-2.951a.99.99,0,0,0-1.346.419l-.9,1.747a39.927,39.927,0,0,0-3.978-2.159c-.659-.166-2.678.121-1.526,1.687s4.035,2.064,2.713,6.183-12.462,16.23-8.945,45.393c.593,4.916,5.282,6.315,5.85.582.915-9.239,2.329-22.163,4.973-29.369,3.364-9.169,8.7-21.533,8.7-21.533" transform="translate(-227.185 -220.218)" fill="#6fca95"/>
            <path id="Path_3759" data-name="Path 3759" d="M739.8,706.888h-1.319A1.482,1.482,0,0,1,737,705.335c.892-16.844-3.365-27.107-6.486-33.1a1.611,1.611,0,0,1,1.426-2.36h.194c3.122,5.641,9.09,16.723,7.667,37.013" transform="translate(-246.397 -226.001)" fill="#2fb266"/>
            <path id="Path_3760" data-name="Path 3760" d="M674.917,706.827h-1.325c-1.383-20.294,4.607-31.363,7.74-37h.2a1.611,1.611,0,0,1,1.421,2.362c-3.133,5.987-7.41,16.241-6.553,33.087a1.481,1.481,0,0,1-1.484,1.549" transform="translate(-227.186 -225.984)" fill="#2fb266"/>
            <path id="Path_3761" data-name="Path 3761" d="M752.458,477.649a4.8,4.8,0,0,1,3.617,1.417l1.733,1.734,8.621-8.621-1.423-1.423a4.831,4.831,0,0,1-1.423-3.824,11.772,11.772,0,0,0-16.448-11.865.589.589,0,0,0-.047,1.053l5.385,2.972a2.842,2.842,0,0,1,1.113,3.857l-3.322,6.011a2.838,2.838,0,0,1-3.857,1.113l-5.331-2.944a.587.587,0,0,0-.863.61,11.784,11.784,0,0,0,12.243,9.909" transform="translate(-249.729 -153.197)" fill="#34495e"/>
            <path id="Path_3762" data-name="Path 3762" d="M810.3,534.414l-43.682-43.682a.549.549,0,0,1,0-.777l8.716-8.716a.55.55,0,0,1,.777,0l43.682,43.682a5.821,5.821,0,0,1,1.659,4.438,7.049,7.049,0,0,1-2.094,4.619c-2.622,2.621-6.677,2.817-9.057.436" transform="translate(-258.585 -162.304)" fill="#f39c11"/>
            <path id="Path_3763" data-name="Path 3763" d="M740.114,537.828c1.336-1.667,4.186-5.182,5.43-6.41.213-.211,1.215-1.032,5.164-2.761l.23-.1,24-24.558,2.976,2.977-24.557,24-.1.23c-1.732,3.95-2.551,4.951-2.761,5.164-1.228,1.245-4.743,4.094-6.41,5.43Z" transform="translate(-249.698 -170.038)" fill="#34495e"/>
            <path id="Path_3764" data-name="Path 3764" d="M760.85,533.525l-2.487-2.487a.107.107,0,0,1,0-.151l15.128-15.547,3.059,3.059L761,533.526a.107.107,0,0,1-.15,0" transform="translate(-255.844 -173.864)" fill="#707070"/>
            <path id="Path_3765" data-name="Path 3765" d="M822.382,456.659c-3.718-3.712-9.174-.213-9.759.131a.006.006,0,0,1-.007-.006,36.454,36.454,0,0,0-11.06,9,41.383,41.383,0,0,0-4.806,7.72c-1.152,2.347-1.909,4.25-2.619,5.308-.112.172-.828,1.105-1.07,1.395a62.381,62.381,0,0,1-5.8,6.048c-.928.7-5.326,3.866-5.74,4.173a2.322,2.322,0,0,0-.863,1.082c-.024.3.585.816.537,1.146a14.151,14.151,0,0,1-.408,1.537c-.172.532-.29.733.112,1.236.2.248.751.827,1.319,1.395s1.147,1.123,1.395,1.324c.5.4.71.278,1.236.107a14.333,14.333,0,0,1,1.537-.408c.331-.047.852.562,1.147.538a2.38,2.38,0,0,0,1.087-.857c.3-.414,3.464-4.818,4.168-5.746a62.416,62.416,0,0,1,6.047-5.8c.29-.242,1.224-.958,1.4-1.07,1.052-.71,2.955-1.466,5.3-2.613a41.641,41.641,0,0,0,7.72-4.812,36.447,36.447,0,0,0,9-11.06.006.006,0,0,1-.006-.006c.337-.591,3.778-6.106.13-9.76m-4.628,1.082a2.519,2.519,0,1,1,.16,3.387,2.4,2.4,0,0,1-.16-3.387" transform="translate(-263.367 -153.495)" fill="#2fb266"/>
            <path id="Path_3766" data-name="Path 3766" d="M335.925,89.793l39.991-69.267a1.811,1.811,0,0,1,3.136,0l39.991,69.267a1.81,1.81,0,0,1-1.568,2.716H337.493a1.811,1.811,0,0,1-1.568-2.716" transform="translate(-113.251 -6.62)" fill="#ffb61c"/>
            <path id="Path_3767" data-name="Path 3767" d="M413.782,92.525H349.129a1.678,1.678,0,0,1-1.453-2.518L380,34.019a1.679,1.679,0,0,1,2.908,0l32.326,55.989a1.679,1.679,0,0,1-1.454,2.518m-64.126-1.982h63.6l-31.8-55.08Z" transform="translate(-117.221 -11.194)" fill="#34495e"/>
            <path id="Path_3768" data-name="Path 3768" d="M390.209,75.286,399.7,58.94l-4.862-2L384.147,78.1h7.96l-4.263,10.813-2.6-.968-.219,8.11,6.825-5.65-2.634-.981,8.979-14.14Z" transform="translate(-129.602 -19.21)" fill="#34495e"/>
            <rect id="Rectangle_811" data-name="Rectangle 811" width="49.514" height="38.969" transform="translate(274.564 289.516)" fill="#e1bf9c"/>
            <path id="Path_3769" data-name="Path 3769" d="M502.475,477.541l-14.631,23.835L473.963,524.01l-9.953,16.221v.01l-9.778,15.945-3.2,5.212L438.154,582.41a163.291,163.291,0,0,1-30.277,3.407h-.062q-1.616.031-3.232.03c-.913,0-1.826-.01-2.739-.021h-.072a163.9,163.9,0,0,1-28.319-2.924l-14.025-23.988-.329-.555-1.272-2.175L343.2,531.161l-.011-.021-4.165-7.13-20.5-35.018L310.19,474.75l7.213-1.662,21.372-4.925,26.081-6,14.364-2.472,25.363,17.34,24.142-16.662,14.806,2.78,24.85,6.064,21.352,5.222Z" transform="translate(-104.651 -155.089)" fill="#e1bf9c"/>
            <path id="Path_3770" data-name="Path 3770" d="M519.682,513.712a164.481,164.481,0,0,1-90.053,66.28q-6.34,1.863-12.877,3.222a163.3,163.3,0,0,1-30.277,3.406h-.062q-1.616.031-3.232.031c-.913,0-1.826-.011-2.739-.021h-.072a164,164,0,0,1-28.318-2.924c-5.192-1.006-10.312-2.247-15.319-3.725a163.439,163.439,0,0,1-45.524-21.495,165.145,165.145,0,0,1-44.457-44.663c.215-16.786,14.713-31.652,36.116-36.905l13.123-3.242.041-.01h.011l21.3-5.243.369-.092,25.445-6.259.03.082c.082.277.164.544.267.811a29.484,29.484,0,0,0,10.763,14.323c0,.011,0,.011.01.011a39.227,39.227,0,0,0,3.591,2.329,45.862,45.862,0,0,0,12.312,4.75h.041a56.711,56.711,0,0,0,25.589,0h.041a46.854,46.854,0,0,0,11.522-4.32,37.066,37.066,0,0,0,3.417-2.083v-.011a29.705,29.705,0,0,0,11.389-14.015,6.511,6.511,0,0,0,.323-.887l15.251,3.159,9.42,1.811,18.838,4.607,2.5.626h.011l15.031,3.683c21.362,5.233,35.88,20.018,36.177,36.762" transform="translate(-83.249 -155.893)" fill="#2fb266"/>
            <path id="Path_3771" data-name="Path 3771" d="M495.407,592.013a163.459,163.459,0,0,1-43.144,19.925q-6.34,1.863-12.876,3.222a163.3,163.3,0,0,1-30.278,3.407h-.062q-1.616.031-3.232.03c-.913,0-1.827-.01-2.74-.021H403a163.949,163.949,0,0,1-28.318-2.924c-5.192-1.006-10.312-2.247-15.319-3.725a163.446,163.446,0,0,1-45.524-21.495V561c0-2.34,2.165-4.237,4.833-4.237h170.5A4.593,4.593,0,0,1,494,560.822Z" transform="translate(-105.884 -187.838)" fill="#0e2a5c"/>
            <path id="Path_3772" data-name="Path 3772" d="M567.936,476.294l-.137,1.973-1.89,26.95-2.693,38.433a2.386,2.386,0,0,1-.659,1.466l-8.645,9.194a3.079,3.079,0,0,1-4.584-.246l-7.251-9.99-.046-.063a2.3,2.3,0,0,1-.45-1.525l4.867-69.434.14-1.987,18.834,4.613Z" transform="translate(-182.715 -158.927)" fill="#0e2a5c"/>
            <path id="Path_3773" data-name="Path 3773" d="M560.533,572.445a4.41,4.41,0,0,1-4.852,3.759,4.241,4.241,0,0,1-4.291-4.251,4.41,4.41,0,0,1,4.852-3.759,4.241,4.241,0,0,1,4.291,4.251" transform="translate(-186.023 -191.693)" fill="#373735"/>
            <path id="Path_3774" data-name="Path 3774" d="M346.936,544.212l-7.3,10.053a3.079,3.079,0,0,1-4.584.246l-8.647-9.194a2.384,2.384,0,0,1-.657-1.466l-3.563-50.823-1.115-15.9-.014-.209.048-.012,21.3-5.246.038.546,4.415,63,.523,7.484a2.314,2.314,0,0,1-.448,1.525" transform="translate(-108.318 -159.127)" fill="#0e2a5c"/>
            <path id="Path_3775" data-name="Path 3775" d="M337.175,572.445a4.41,4.41,0,0,0,4.852,3.759,4.241,4.241,0,0,0,4.291-4.251,4.41,4.41,0,0,0-4.852-3.759,4.241,4.241,0,0,0-4.291,4.251" transform="translate(-113.752 -191.693)" fill="#373735"/>
            <path id="Path_3776" data-name="Path 3776" d="M475.443,608.6v20.828q-6.34,1.862-12.877,3.222a163.359,163.359,0,0,1-30.277,3.406h-.062q-1.616.031-3.232.031c-.913,0-1.826-.011-2.739-.021h-.072a163.949,163.949,0,0,1-28.318-2.924c-5.192-1.005-10.312-2.247-15.319-3.725V608.6Z" transform="translate(-129.063 -205.327)" fill="#2fb266"/>
            <path id="Path_3777" data-name="Path 3777" d="M475.448,608.6,429,628.5l-46.451-19.9Z" transform="translate(-129.063 -205.329)" fill="#6fca95"/>
            <path id="Path_3778" data-name="Path 3778" d="M454.266,626.508a3.327,3.327,0,1,1-3.3-2.89,3.115,3.115,0,0,1,3.3,2.89" transform="translate(-151.034 -210.394)" fill="#373735"/>
            <path id="Path_3779" data-name="Path 3779" d="M366.515,339.185a1.759,1.759,0,0,1-.89.271c-2.534,0-4.565-5.881-4.565-13.134,0-7.274,2.031-13.154,4.565-13.154a2.067,2.067,0,0,1,.561.117c1.971,1.085,3.153,1.973,3.153,4.855,0,6.944.73,19.5-2.824,21.046" transform="translate(-121.813 -105.655)" fill="#f0d0a9"/>
            <path id="Path_3780" data-name="Path 3780" d="M538.772,326.285c0,7.254-2.031,13.134-4.546,13.134a1.841,1.841,0,0,1-.639-.174c-1.16-2.152-1.45-7.7-1.721-10.793-.038-.426-.078-.89-.116-1.354-.541-6.674,2.07-15.108,2.186-13.928a1.5,1.5,0,0,1,.29-.038c1.547,0,2.921,2.263,3.752,5.706a32.813,32.813,0,0,1,.793,7.448" transform="translate(-179.376 -105.619)" fill="#f0d0a9"/>
            <path id="Path_3781" data-name="Path 3781" d="M476.771,305.606c0,39.439-23.63,71.412-52.78,71.412s-52.78-31.972-52.78-71.412,23.63-71.412,52.78-71.412,52.78,31.972,52.78,71.412" transform="translate(-125.238 -79.012)" fill="#f0d0a9"/>
            <path id="Path_3782" data-name="Path 3782" d="M479.071,269.65c0-.918-.013-1.832-.021-2.743,0-.438-.009-.873-.017-1.307-.029-2.735-.079-5.4-.14-7.909-.087-3.169-.2-6.085-.351-8.583v0a50.478,50.478,0,0,0-.8-7.33c-1.079-4.567-8.289-12.815-18.763-19.313a.08.08,0,0,0-.021-.012,68.444,68.444,0,0,0-10.238-5.229c-.406-.157-.811-.318-1.221-.476-.706-.268-1.41-.525-2.13-.769a51.461,51.461,0,0,0-20.168-2.854c-.154.008-.311.017-.464.029-.645.049-1.27.1-1.878.153-10.593.877-15.975,1.791-19.673,2.994-.765.248-1.456.513-2.109.79-.406.17-.8.348-1.175.534-2.916,1.423-5.324,3.206-10.614,5.613-5.335,2.42-10.218,7.04-13.7,11.715-.021.028-.04.058-.062.082a32.732,32.732,0,0,0-4.628,8.257c0,.008-.009.021-.013.028a9.082,9.082,0,0,0-.637,3.674c.157,1.572.236,5.87.277,11.106.017,2.027.025,4.2.025,6.4,0,.343,0,.686,0,1.03,0,1.621,0,3.255-.009,4.86,0,3.28-.013,6.427-.025,9.108,0,.252,0,.5,0,.748v0c-.021,4.2-.042,7.065-.042,7.065-.05,6.027-.228,11.793-.228,11.793l.356,5.423v.009l.972,14.792a55.819,55.819,0,0,0,4.815,19.491,84.763,84.763,0,0,0,14.089,21.757c.223.256.43.472.629.7a61.17,61.17,0,0,0,4.7,4.534q1.806,1.563,3.693,2.929c.129.091.256.186.385.277a40.325,40.325,0,0,0,48.487.037c.129-.087.249-.17.377-.264q1.985-1.421,3.88-3.078,2.154-1.868,4.19-4.008c.256-.268.959-1.1.959-1.1l.021-.021a78.628,78.628,0,0,0,11.359-16.57q1.471-2.83,2.784-5.841a62.418,62.418,0,0,0,4.749-17.679l.4-3.409,1.518-12.9.029-.227c.149-1.353.393-11.909.443-24.033,0-.339,0-.682,0-1.026v0c.009-3.04,0-6.155-.021-9.245m-4.008,24.542c0,.033-.009.066-.013.1-1.063,7.478-2.758,18.957-2.758,18.957a52.891,52.891,0,0,1-18,32.3l-.12.2a2.346,2.346,0,0,1-.144-.579,12.351,12.351,0,0,0-5.605-8.4,25.283,25.283,0,0,0-5.257-2.556s-20.707-6.172-40.96.922c-.148.054-.3.112-.454.174a12.236,12.236,0,0,0-7.182,8.467,8.1,8.1,0,0,1-.559,1.754c-9.071-7.4-15.06-18.842-17.017-31.226,0,0-2.342-14.109-3.59-21.633a23.594,23.594,0,0,1,.36-9.435c.413-1.692.906-3.595,1.414-5.308a31.167,31.167,0,0,1,1.365-3.888,120.224,120.224,0,0,1,5.857-10.978c.811-1.357,1.522-2.49,2.064-3.322.179-.277.373-.563.576-.852q.414-.589.9-1.216v0c3.81-4.943,10.411-11.284,14.362-15.309a32.882,32.882,0,0,0,3.023-3.322c.7-1,10.424,7.148,32.012,8.19a82.051,82.051,0,0,1,12.988,1.584,52.369,52.369,0,0,1,7.466,2.1,15.965,15.965,0,0,1,8.719,7.934c.174.344.331.7.476,1.055.182.439.347.889.488,1.344l.724,1.865,4.517,11.615,1.208,3.1v0l1.774,4.558a23.479,23.479,0,0,1,1.37,11.805" transform="translate(-124.908 -71.867)" fill="#89695e"/>
            <path id="Path_3783" data-name="Path 3783" d="M462.045,414.213c0,3.989-9.287,7.223-20.742,7.223s-20.743-3.234-20.743-7.223,9.287-7.223,20.743-7.223,20.742,3.234,20.742,7.223" transform="translate(-141.887 -137.309)" fill="#f0d0a9"/>
            <path id="Path_3784" data-name="Path 3784" d="M455.213,432.049H443.657v-9.142a2.756,2.756,0,0,1,2.756-2.756h6.044a2.756,2.756,0,0,1,2.756,2.756Z" transform="translate(-149.68 -141.75)" fill="#89695e"/>
            <path id="Path_3785" data-name="Path 3785" d="M481.86,233.747v29.346a128.963,128.963,0,0,0-37.162-11.54,145.594,145.594,0,0,0-19.482-1.675c-.912-.021-1.83-.028-2.741-.028-1.22,0-2.432.014-3.638.035a145.354,145.354,0,0,0-23.113,2.4,126.982,126.982,0,0,0-32.879,10.789V243h-.007v-9.254a42.84,42.84,0,0,1,9.745-27.481,64.887,64.887,0,0,1,28.8-19.825c.371-.127.743-.245,1.121-.372a65.024,65.024,0,0,1,34.828-1.346c.4.091.8.2,1.2.294a64.8,64.8,0,0,1,33.586,21.248,42.837,42.837,0,0,1,9.745,27.481" transform="translate(-122.413 -61.73)" fill="#2fb266"/>
            <path id="Path_3786" data-name="Path 3786" d="M422.348,283.9c-22.083,0-42.588,4.879-59.511,13.243a8.288,8.288,0,0,0,7.361,2.285,312.055,312.055,0,0,1,104.3,0,8.286,8.286,0,0,0,7.36-2.285c-16.923-8.364-37.428-13.243-59.511-13.243" transform="translate(-122.413 -95.782)" fill="#0e2a5c"/>
            <path id="Path_3787" data-name="Path 3787" d="M462.152,236.895v14.663a160.926,160.926,0,0,0-20.932-1.676c-.914-.022-1.828-.029-2.743-.029q-1.828,0-3.634.036a162.059,162.059,0,0,0-24.567,2.4v-15.4a112.571,112.571,0,0,1,1.06-12.406c1.763-14.133,5.21-33.382,6.051-38.047.37-.123.739-.246,1.117-.37a65.12,65.12,0,0,1,34.833-1.35c.4.095.8.2,1.2.3a1.185,1.185,0,0,0,.312.363s4.216,22.9,6.247,39.1a112.817,112.817,0,0,1,1.06,12.414" transform="translate(-138.418 -61.731)" fill="#f7931e"/>
            <path id="Path_3788" data-name="Path 3788" d="M545.544,274.2v13.462c0,2.173-1.643,3.572-3.055,2.623l-.032-.021v-20.09h.178c1.606,0,2.908,1.8,2.908,4.027" transform="translate(-183.013 -91.151)" fill="#bf9437"/>
            <path id="Path_3789" data-name="Path 3789" d="M358.183,274.2v13.462c0,2.173,1.643,3.572,3.055,2.623l.032-.021v-20.09h-.178c-1.606,0-2.908,1.8-2.908,4.027" transform="translate(-120.843 -91.151)" fill="#bf9437"/>
            <path id="Path_3790" data-name="Path 3790" d="M461.441,236.047V250.71a146.958,146.958,0,0,0-48.973.732v-15.4a119.234,119.234,0,0,1,1-12.406c1.712-14.54,5.108-34.5,5.775-38.417.08-.45.123-.689.123-.689.443-.261,1.277-2.764,2.242-3.112a76.989,76.989,0,0,1,15.345-.878,76.989,76.989,0,0,1,15.345.878c.689.247,1.321,1.61,1.777,2.452a2.032,2.032,0,0,0,.465.661s3.983,22.9,5.9,39.1a119.5,119.5,0,0,1,1,12.414" transform="translate(-139.157 -60.884)" fill="#0e2a5c"/>
            <path id="Path_3791" data-name="Path 3791" d="M447.248,227.886l9.034-15.554-4.627-1.905-10.176,20.14h7.574L445,240.857l-2.474-.922-.209,7.718,6.5-5.377-2.506-.934,8.545-13.456Z" transform="translate(-148.945 -70.993)" fill="#fece30"/>
            <path id="Path_3792" data-name="Path 3792" d="M419.829,330.658a4.333,4.333,0,1,1-4.333-4.333,4.333,4.333,0,0,1,4.333,4.333" transform="translate(-138.717 -110.095)" fill="#4d4d4d"/>
            <path id="Path_3793" data-name="Path 3793" d="M487.851,330.658a4.333,4.333,0,1,1-4.333-4.333,4.333,4.333,0,0,1,4.333,4.333" transform="translate(-161.666 -110.095)" fill="#4d4d4d"/>
            <path id="Path_3794" data-name="Path 3794" d="M400.945,320.657l-.014-.015a1.659,1.659,0,0,1,.273-2.45c4.334-3.04,12.2-5.781,19.212-.051a1.678,1.678,0,0,1,.141,2.487h0a1.656,1.656,0,0,1-2.214.123c-6.131-5.025-12.618-1.6-15.214.188a1.659,1.659,0,0,1-2.183-.282" transform="translate(-135.124 -106.205)" fill="#89695e"/>
            <path id="Path_3795" data-name="Path 3795" d="M470.665,320.657l-.014-.015a1.659,1.659,0,0,1,.273-2.45c4.334-3.04,12.2-5.781,19.212-.051a1.678,1.678,0,0,1,.141,2.487,1.657,1.657,0,0,1-2.215.123c-6.13-5.025-12.618-1.6-15.214.188a1.658,1.658,0,0,1-2.183-.282" transform="translate(-158.646 -106.205)" fill="#89695e"/>
            <path id="Path_3796" data-name="Path 3796" d="M447.028,351.173l3.232-20.5a41.807,41.807,0,0,0,0-13.038l-.826-5.241L442.7,355.13a2.65,2.65,0,0,0,2.775,2.926h8.663a2.048,2.048,0,0,0,2.144-2.261,2.114,2.114,0,0,0-2.144-1.7H449.8a2.65,2.65,0,0,1-2.775-2.926" transform="translate(-149.345 -105.395)" fill="#d7b399"/>
          </g>
        </g>
      </g>
    </g>
  </g>
</svg>
